<svg width="50" height="50" viewBox="0 0 50 50" fill="none" xmlns="http://www.w3.org/2000/svg">
<path d="M24.707 12.9883C26.027 12.9576 27.3388 13.2032 28.5583 13.7093C29.7778 14.2154 30.878 14.9708 31.7883 15.9272C32.6986 16.8835 33.399 18.0195 33.8445 19.2624C34.2899 20.5054 34.4706 21.8277 34.375 23.1445M26.2695 18.1641C26.6708 18.1504 27.0705 18.2194 27.444 18.3668C27.8174 18.5141 28.1566 18.7366 28.4405 19.0205C28.7244 19.3043 28.9469 19.6435 29.0942 20.017C29.2415 20.3904 29.3105 20.7902 29.2969 21.1914L26.2695 18.1641ZM25.5859 15.5273C26.4319 15.5264 27.2693 15.6972 28.0474 16.0295C28.8254 16.3618 29.5279 16.8485 30.1122 17.4603C30.6966 18.072 31.1507 18.796 31.447 19.5885C31.7433 20.3809 31.8756 21.2252 31.8359 22.0703L25.5859 15.5273Z" stroke="black" stroke-width="0.976562" stroke-linecap="round"/>
<path d="M28.125 26.7578C28.776 25.9115 29.5573 25.7812 30.4688 26.3672L33.9844 29.0039C34.5052 29.6549 34.2773 30.5664 33.3008 31.7383C32.3242 32.9102 31.4128 33.3984 30.5664 33.2031C27.1159 32.4219 23.7956 30.4688 20.6055 27.3438C17.4154 24.2188 15.4297 20.8333 14.6484 17.1875C14.6484 15.8854 15.4622 14.7786 17.0898 13.8672C17.9362 13.2812 18.6523 13.444 19.2383 14.3555L21.6797 17.7734C22.0703 18.5547 21.8424 19.2708 20.9961 19.9219C17.1875 21.3867 25.9766 30.8594 28.125 26.7578ZM9.27734 22.6562C9.27734 30.2734 10.6445 31.9336 12.793 34.1797C13.4766 34.8633 15.918 36.0352 16.5039 36.0352V42.7734C16.5039 43.1641 16.8945 43.457 17.2852 43.0664L22.4609 36.9141L25 37.0117C39.0625 37.0117 40.7227 31.543 40.7227 22.6562C40.7227 13.7695 39.0625 8.30078 25 8.30078C10.9375 8.30078 9.27734 13.7695 9.27734 22.6562ZM6.34766 22.6562C6.34766 10.3516 11.7188 5.37109 25 5.37109C38.2812 5.37109 43.6523 10.3516 43.6523 22.6562C43.6523 34.9609 38.2812 39.9414 25 39.9414C24.0234 39.9414 23.2422 39.9414 21.875 39.7461L18.1641 43.9453C17.4805 44.7266 15.4297 45.0195 15.4297 42.6758V38.5742C14.8438 38.5742 13.4766 37.9883 11.6211 36.8164C9.76562 35.5469 6.34766 32.5195 6.34766 22.6562Z" fill="black"/>
</svg>
