<svg width="413" height="331" viewBox="0 0 413 331" fill="none" xmlns="http://www.w3.org/2000/svg">
<rect width="413" height="330.4" fill="#333333"/>
<rect x="304.118" y="20.65" width="3.75455" height="101.373" fill="white"/>
<rect x="304.118" y="20.65" width="3.75455" height="101.373" fill="white"/>
<rect x="108.882" y="24.4045" width="3.75455" height="195.236" transform="rotate(-90 108.882 24.4045)" fill="white"/>
<rect x="108.882" y="24.4045" width="3.75455" height="195.236" transform="rotate(-90 108.882 24.4045)" fill="white"/>
<rect x="105.127" y="20.65" width="3.75455" height="101.373" fill="white"/>
<rect x="105.127" y="20.65" width="3.75455" height="101.373" fill="white"/>
<rect x="105.127" y="208.377" width="3.75455" height="101.373" fill="white"/>
<rect x="304.118" y="208.377" width="3.75455" height="101.373" fill="white"/>
<rect x="108.882" y="309.75" width="3.75455" height="195.236" transform="rotate(-90 108.882 309.75)" fill="white"/>
<rect x="138.918" y="257.186" width="135.164" height="3.75455" fill="white"/>
<path d="M17.0575 179.156H21.3369V161.749C21.3369 157.669 24.3106 154.786 27.6471 154.786C30.8928 154.786 33.1594 156.907 33.1594 160.081V179.156H37.5113V161.024C37.5113 157.433 39.7597 154.786 43.6764 154.786C46.7227 154.786 49.3338 156.4 49.3338 160.516V179.156H53.6132V160.516C53.6132 153.97 50.0954 150.942 45.127 150.942C41.1378 150.942 38.2185 152.773 36.786 155.656H36.4958C35.1178 152.683 32.688 150.942 29.0252 150.942C25.3986 150.942 22.715 152.683 21.5545 155.656H21.1918V151.304H17.0575V179.156ZM73.1149 179.737C78.7723 179.737 82.9066 176.908 84.2122 172.701L80.0779 171.541C78.9899 174.442 76.4695 175.892 73.1149 175.892C68.0922 175.892 64.6288 172.647 64.4293 166.681H84.6474V164.868C84.6474 154.496 78.4822 150.942 72.6797 150.942C65.1365 150.942 60.1319 156.889 60.1319 165.448C60.1319 174.007 65.064 179.737 73.1149 179.737ZM64.4293 162.982C64.7195 158.648 67.7839 154.786 72.6797 154.786C77.3217 154.786 80.2955 158.267 80.2955 162.982H64.4293ZM95.4363 142.021H91.157V179.156H95.4363V142.021ZM114.589 179.737C122.132 179.737 127.209 174.007 127.209 165.375C127.209 156.672 122.132 150.942 114.589 150.942C107.046 150.942 101.969 156.672 101.969 165.375C101.969 174.007 107.046 179.737 114.589 179.737ZM114.589 175.892C108.859 175.892 106.248 170.96 106.248 165.375C106.248 159.791 108.859 154.786 114.589 154.786C120.319 154.786 122.93 159.791 122.93 165.375C122.93 170.96 120.319 175.892 114.589 175.892ZM155.519 151.304H150.877L143.189 173.499H142.899L135.211 151.304H130.569L140.868 179.156H145.22L155.519 151.304ZM168.516 179.809C173.375 179.809 175.914 177.198 176.784 175.385H177.002V179.156H181.281V160.806C181.281 151.957 174.536 150.942 170.982 150.942C166.775 150.942 161.988 152.392 159.812 157.47L163.874 158.92C164.817 156.889 167.047 154.713 171.127 154.713C175.062 154.713 177.002 156.799 177.002 160.371V160.516C177.002 162.583 174.899 162.402 169.821 163.054C164.654 163.725 159.014 164.868 159.014 171.25C159.014 176.69 163.221 179.809 168.516 179.809ZM169.169 175.965C165.76 175.965 163.294 174.442 163.294 171.468C163.294 168.204 166.267 167.189 169.604 166.754C171.417 166.536 176.277 166.028 177.002 165.158V169.075C177.002 172.556 174.246 175.965 169.169 175.965ZM190.851 189.601C194.713 189.601 197.433 187.552 199.047 183.218L210.906 151.377L206.227 151.304L198.539 173.499H198.249L190.561 151.304H185.919L196.218 179.301L195.42 181.477C193.861 185.72 191.939 186.119 188.82 185.322L187.732 189.093C188.167 189.311 189.4 189.601 190.851 189.601ZM223.916 179.809C228.776 179.809 231.314 177.198 232.184 175.385H232.402V179.156H236.681V160.806C236.681 151.957 229.936 150.942 226.382 150.942C222.175 150.942 217.388 152.392 215.212 157.47L219.274 158.92C220.217 156.889 222.447 154.713 226.527 154.713C230.462 154.713 232.402 156.799 232.402 160.371V160.516C232.402 162.583 230.299 162.402 225.221 163.054C220.054 163.725 214.414 164.868 214.414 171.25C214.414 176.69 218.621 179.809 223.916 179.809ZM224.569 175.965C221.16 175.965 218.694 174.442 218.694 171.468C218.694 168.204 221.667 167.189 225.004 166.754C226.817 166.536 231.677 166.028 232.402 165.158V169.075C232.402 172.556 229.646 175.965 224.569 175.965ZM247.611 179.446C249.406 179.446 250.875 177.978 250.875 176.183C250.875 174.387 249.406 172.919 247.611 172.919C245.816 172.919 244.347 174.387 244.347 176.183C244.347 177.978 245.816 179.446 247.611 179.446ZM269.071 179.737C274.438 179.737 276.252 176.4 277.194 174.877H277.702V179.156H281.836V142.021H277.557V155.729H277.194C276.252 154.278 274.583 150.942 269.144 150.942C262.108 150.942 257.248 156.527 257.248 165.303C257.248 174.152 262.108 179.737 269.071 179.737ZM269.651 175.892C264.284 175.892 261.528 171.178 261.528 165.23C261.528 159.355 264.211 154.786 269.651 154.786C274.873 154.786 277.63 158.993 277.63 165.23C277.63 171.541 274.801 175.892 269.651 175.892ZM301.583 179.737C309.126 179.737 314.203 174.007 314.203 165.375C314.203 156.672 309.126 150.942 301.583 150.942C294.04 150.942 288.963 156.672 288.963 165.375C288.963 174.007 294.04 179.737 301.583 179.737ZM301.583 175.892C295.853 175.892 293.242 170.96 293.242 165.375C293.242 159.791 295.853 154.786 301.583 154.786C307.313 154.786 309.924 159.791 309.924 165.375C309.924 170.96 307.313 175.892 301.583 175.892ZM340.464 157.542C339.122 153.589 336.112 150.942 330.6 150.942C324.725 150.942 320.373 154.278 320.373 158.993C320.373 162.837 322.658 165.412 327.771 166.609L332.413 167.696C335.224 168.349 336.547 169.691 336.547 171.613C336.547 174.007 334.009 175.965 330.02 175.965C326.52 175.965 324.326 174.46 323.564 171.468L319.503 172.484C320.5 177.216 324.399 179.737 330.092 179.737C336.566 179.737 340.972 176.201 340.972 171.396C340.972 167.515 338.542 165.067 333.574 163.852L329.439 162.837C326.139 162.021 324.652 160.915 324.652 158.775C324.652 156.382 327.191 154.641 330.6 154.641C334.335 154.641 335.877 156.708 336.62 158.63L340.464 157.542ZM347.414 179.156H351.693V168.73L354.685 165.956L365.111 179.156H370.551L357.912 163.2L369.681 151.304H364.386L352.201 163.707H351.693V142.021H347.414V179.156ZM383.384 179.809C388.244 179.809 390.783 177.198 391.653 175.385H391.87V179.156H396.15V160.806C396.15 151.957 389.404 150.942 385.85 150.942C381.644 150.942 376.857 152.392 374.681 157.47L378.742 158.92C379.685 156.889 381.916 154.713 385.995 154.713C389.93 154.713 391.87 156.799 391.87 160.371V160.516C391.87 162.583 389.767 162.402 384.69 163.054C379.522 163.725 373.883 164.868 373.883 171.25C373.883 176.69 378.09 179.809 383.384 179.809ZM384.037 175.965C380.628 175.965 378.162 174.442 378.162 171.468C378.162 168.204 381.136 167.189 384.472 166.754C386.286 166.536 391.145 166.028 391.87 165.158V169.075C391.87 172.556 389.114 175.965 384.037 175.965Z" fill="white"/>
<path d="M178.593 277.606C178.237 276.559 177.441 275.859 175.982 275.859C174.426 275.859 173.274 276.742 173.274 277.99C173.274 279.007 173.879 279.689 175.233 280.006L176.461 280.294C177.205 280.467 177.556 280.822 177.556 281.331C177.556 281.964 176.884 282.482 175.828 282.482C174.902 282.482 174.321 282.084 174.119 281.292L173.044 281.561C173.308 282.814 174.34 283.481 175.847 283.481C177.561 283.481 178.727 282.545 178.727 281.273C178.727 280.246 178.084 279.598 176.769 279.276L175.674 279.007C174.801 278.791 174.407 278.499 174.407 277.932C174.407 277.299 175.079 276.838 175.982 276.838C176.97 276.838 177.378 277.385 177.575 277.894L178.593 277.606ZM180.432 283.327H181.565V275.955H180.432V283.327ZM181.008 274.726C181.45 274.726 181.815 274.38 181.815 273.958C181.815 273.536 181.45 273.19 181.008 273.19C180.567 273.19 180.202 273.536 180.202 273.958C180.202 274.38 180.567 274.726 181.008 274.726ZM184.772 278.892C184.772 277.606 185.569 276.876 186.654 276.876C187.705 276.876 188.344 277.563 188.344 278.719V283.327H189.476V278.643C189.476 276.761 188.473 275.859 186.98 275.859C185.867 275.859 185.176 276.358 184.83 277.107H184.734V275.955H183.64V283.327H184.772V278.892ZM194.541 283.481C196.173 283.481 197.248 282.482 197.44 281.177H196.308C196.096 281.983 195.424 282.463 194.541 282.463C193.197 282.463 192.333 281.35 192.333 279.641C192.333 277.971 193.217 276.876 194.541 276.876C195.54 276.876 196.135 277.491 196.308 278.163H197.44C197.248 276.78 196.077 275.859 194.522 275.859C192.525 275.859 191.201 277.433 191.201 279.679C191.201 281.887 192.468 283.481 194.541 283.481ZM202.187 283.481C203.685 283.481 204.779 282.732 205.125 281.619L204.031 281.311C203.743 282.079 203.075 282.463 202.187 282.463C200.858 282.463 199.941 281.604 199.888 280.025H205.24V279.545C205.24 276.799 203.608 275.859 202.072 275.859C200.076 275.859 198.751 277.433 198.751 279.699C198.751 281.964 200.056 283.481 202.187 283.481ZM199.888 279.046C199.965 277.899 200.776 276.876 202.072 276.876C203.301 276.876 204.088 277.798 204.088 279.046H199.888ZM210.746 283.327H216.947V282.271H212.378V282.195L214.585 279.833C216.275 278.023 216.774 277.179 216.774 276.089C216.774 274.572 215.545 273.363 213.817 273.363C212.094 273.363 210.784 274.534 210.784 276.262H211.917C211.917 275.144 212.642 274.4 213.779 274.4C214.845 274.4 215.661 275.052 215.661 276.089C215.661 276.996 215.128 277.668 213.99 278.911L210.746 282.463V283.327ZM222.136 283.462C224.305 283.462 225.553 281.623 225.553 278.412C225.553 275.225 224.286 273.363 222.136 273.363C219.985 273.363 218.718 275.225 218.718 278.412C218.718 281.623 219.966 283.462 222.136 283.462ZM222.136 282.406C220.705 282.406 219.87 280.971 219.87 278.412C219.87 275.859 220.715 274.4 222.136 274.4C223.556 274.4 224.401 275.859 224.401 278.412C224.401 280.971 223.566 282.406 222.136 282.406ZM230.833 273.497H229.643L227.185 275.129V276.339L229.585 274.745H229.643V283.327H230.833V273.497ZM236.79 273.363C234.793 273.339 233.506 274.841 233.506 276.646C233.506 278.547 234.908 279.91 236.598 279.91C237.615 279.91 238.479 279.411 239.017 278.604H239.093C239.093 281.023 238.153 282.406 236.636 282.406C235.599 282.406 234.966 281.753 234.754 280.851H233.583C233.814 282.406 234.985 283.462 236.636 283.462C238.844 283.462 240.207 281.503 240.207 278.009C240.207 274.4 238.402 273.382 236.79 273.363ZM236.79 274.419C238.018 274.419 238.921 275.475 238.921 276.627C238.921 277.798 237.961 278.854 236.751 278.854C235.542 278.854 234.658 277.875 234.658 276.646C234.658 275.417 235.58 274.419 236.79 274.419Z" fill="white"/>
<g clip-path="url(#clip0)">
<path d="M186.929 46.0777C186 46.7535 183.973 48.1614 182.452 49.2315C180.903 50.3015 179.777 51.2026 179.974 51.2871C180.143 51.3434 181.72 50.4142 183.438 49.2033C185.184 47.9925 186.507 47.1759 186.394 47.3448C186.282 47.5419 184.733 49.2878 182.959 51.2589C177.721 57.0315 177.637 57.5102 182.339 54.2438C184.085 53.0048 187.098 50.9492 189.041 49.682C192.955 47.0632 193.124 46.8661 185.465 54.1312C180.481 58.8619 179.242 60.2135 179.58 60.5796C179.693 60.6641 180.171 60.3543 180.678 59.8756C181.157 59.4251 182.339 58.4677 183.269 57.7637C186.845 55.0886 199.46 46.669 199.46 46.9787C199.46 47.0351 195.096 50.8365 189.745 55.4265C184.395 60.0164 180.087 63.8742 180.171 64.0432C180.397 64.3529 181.044 63.9305 191.153 56.5528C200.361 49.851 202.163 48.5838 201.882 49.0344C201.769 49.2033 196.785 53.4553 190.787 58.4677C184.789 63.48 179.721 67.8165 179.495 68.0699C178.538 69.2244 179.693 68.6049 183.719 65.8172C190.787 60.8893 208.499 49.0344 208.612 49.1188C208.64 49.1752 202.192 54.807 194.223 61.6215C175.947 77.2216 175.638 77.644 189.661 67.7602C202.332 58.7774 214.216 50.6676 213.399 51.5405C213.258 51.7095 208.358 55.5391 202.558 60.1009C185.353 73.5328 180.171 77.813 181.1 77.813C181.298 77.813 184.902 75.3631 189.126 72.3782C193.322 69.3934 199.376 65.1132 202.558 62.8886C205.74 60.6922 208.527 58.7211 208.753 58.5803C210.217 57.5384 207.542 59.763 201.854 64.3247C194.898 69.9002 184.62 78.6296 182.565 80.7415C181.636 81.7271 181.438 82.0368 181.833 82.0368C182.48 82.0368 186.056 79.5588 197.743 71.1111C202.811 67.4786 207.373 64.184 207.908 63.7897C209.175 62.9168 207.514 64.4092 200.727 70.1818C193.124 76.6866 187.295 82.065 184.902 84.8246C182.931 87.0773 182.565 87.6686 183.1 87.6686C183.41 87.6686 188.112 84.1206 202.558 73.0259C208.527 68.436 216.581 62.2973 220.439 59.3687C224.325 56.4684 227.647 53.934 227.845 53.7932C228.014 53.6525 228.182 53.5961 228.182 53.6806C228.182 53.7932 222.072 59.0872 214.61 65.5074C197.292 80.3191 192.111 84.8809 187.127 89.7524C183.381 93.4412 182.762 94.1452 183.381 94.1452C183.916 94.1452 188.506 90.5127 199.179 81.5863C205.261 76.4895 213.568 69.5623 217.595 66.1832C221.65 62.8042 226.211 59.0872 227.76 57.9045L230.576 55.7925L228.886 57.4258C227.563 58.6929 193.378 89.2455 188.028 93.9481C187.352 94.5395 186.789 95.2153 186.789 95.4405C186.789 96.4543 189.069 94.7366 208.33 79.418C215.933 73.3638 222.382 68.2389 222.691 67.9854L223.255 67.563L222.691 68.1262C222.382 68.4641 218.383 71.8151 213.821 75.6165C200.868 86.3452 193.688 93.047 192.251 95.694C190.646 98.707 193.181 96.8203 216.919 77.2779C223.198 72.1248 228.718 67.6475 229.168 67.3096C230.125 66.6056 227.225 69.4215 216.496 79.5025C203.065 92.1459 198.052 97.0175 198.221 97.2709C198.306 97.4117 199.291 96.7359 200.389 95.7503C204.473 92.1178 223.142 77.0245 226.915 74.2931C228.267 73.3075 225.873 75.5602 216.778 83.8672C206.021 93.6947 203.966 95.6377 203.966 96.06C203.966 96.6232 204.36 96.3416 213.681 89.0766C218.186 85.5849 222.663 82.1213 223.677 81.3892L225.507 80.0375L224.212 81.2484C223.508 81.9242 219.284 85.6693 214.835 89.6116C210.414 93.5257 206.782 96.8485 206.782 96.9893C206.782 97.637 207.486 97.1301 214.075 91.6954C219.369 87.3026 223.086 84.5993 225.367 83.4448L226.634 82.7971L226.071 83.4448C225.761 83.8108 222.973 86.2607 219.876 88.9358C213.174 94.6802 210.977 96.9611 212.104 96.9611C212.244 96.9611 213.596 96.0037 215.117 94.821C223.593 88.2881 227.901 85.1625 227.901 85.5285C227.901 85.5849 226.211 87.0773 224.184 88.8232C220.27 92.1178 216.356 95.8066 216.356 96.1727C216.356 96.6795 217.06 96.2572 221.452 93.047C223.987 91.1885 226.577 89.3863 227.197 89.0766L228.323 88.4571L226.915 89.8087C226.155 90.5409 224.325 92.2586 222.917 93.6102C220.551 95.8066 219.876 96.6795 220.523 96.6795C220.636 96.6795 222.579 95.6658 224.803 94.4268L228.886 92.2022L226.803 94.1734C225.676 95.2434 224.803 96.229 224.916 96.3135C225.029 96.4261 226.324 95.8911 227.845 95.159C229.337 94.3987 230.435 93.7228 230.238 93.6665C230.069 93.6102 229.253 93.8636 228.408 94.286L226.915 95.0182L229.253 92.7936C232.688 89.5271 232.435 89.4145 227.873 92.0615C226.127 93.0752 224.043 94.2297 223.283 94.6239C221.875 95.3279 221.903 95.2997 224.522 92.8499C228.464 89.1892 229.647 87.8939 229.337 87.5842C228.971 87.2181 227 88.3445 223.058 91.1885C221.227 92.4838 219.735 93.5257 219.735 93.4694C219.735 93.3849 221.678 91.6954 224.071 89.6679C227.873 86.4296 229.309 84.9935 229.309 84.4303C229.309 83.4448 224.719 86.5986 215.511 93.8636C212.639 96.1164 215.455 93.4694 220.72 88.9358C227.253 83.3321 228.746 81.7552 227.535 81.7552C227.028 81.7552 222.494 84.374 220.58 85.7538L219.031 86.8802L220.326 85.6412C221.03 84.9935 223.283 82.8816 225.31 80.9668C228.746 77.7285 229.421 76.9682 228.774 76.9682C228.464 76.9682 223.114 80.9949 214.891 87.4434C211.343 90.203 208.471 92.3994 208.471 92.343C208.471 92.2867 213.371 87.7531 219.397 82.2339C231.364 71.28 231.731 70.914 231.336 70.6605C230.886 70.379 220.608 78.2917 209.091 87.8094C207.683 88.9921 206.5 89.8932 206.5 89.8369C206.5 89.7524 212.639 83.9235 220.157 76.8274C227.676 69.7313 233.814 63.8179 233.814 63.7052C233.814 62.776 231.731 64.3811 213.821 79.1083C197.94 92.1459 192.984 96.06 192.984 95.5813C192.984 95.1026 197.996 90.0058 202.135 86.317C204.304 84.374 210.189 79.3617 215.229 75.1942C229.703 63.1702 230.717 62.2973 230.717 62.0157C230.717 61.8749 230.548 61.7623 230.351 61.7623C229.759 61.7623 222.776 67.1407 207.007 79.6996C190.252 93.047 190.168 93.1033 190.168 92.9062C190.168 92.8217 198.193 85.6412 207.964 76.9119C227.845 59.2561 234.377 53.3427 234.377 52.9766C234.377 52.3571 233.336 52.9766 229.421 55.9052C224.972 59.2561 221.481 62.1283 204.67 76.2642C191.548 87.3026 186.507 91.442 186.394 91.3012C186.113 90.9632 197.123 81.1639 215.37 65.5637C222.804 59.1998 229.59 53.3427 230.435 52.5542C231.956 51.1463 232.209 50.3297 230.914 51.0337C229.309 51.8784 218.468 60.0727 192.702 79.8967C188.591 83.0505 185.184 85.5567 185.099 85.5004C184.874 85.3033 191.435 79.0238 196.504 74.5747C205.655 66.5212 219.594 55.2012 223.395 52.7232C223.79 52.4698 224.015 52.16 223.902 52.0474C223.649 51.7658 221.03 53.5961 204.529 65.5074C189.464 76.405 188.197 77.3342 185.606 79.1083L184.114 80.122L185.24 79.052C190.59 73.8988 211.991 56.6373 219.312 51.5405C222.044 49.6539 222.663 49.0907 222.016 49.0907C221.565 49.0907 214.018 54.1875 201.995 62.607C195.715 66.9999 190.168 70.8858 189.689 71.28C189.182 71.6461 188.76 71.8995 188.76 71.8151C188.76 71.6461 196.194 65.7327 208.33 56.2994C212.667 52.9203 216.581 49.7947 217.06 49.3441C218.383 48.077 217.341 48.3304 214.638 49.9636C210.949 52.1882 194.561 63.4518 187.295 68.7176C186.535 69.2526 185.944 69.6187 185.944 69.5342C185.944 69.4779 189.323 66.5212 193.49 63.0013C205.965 52.3571 210.724 48.1896 210.724 47.7954C210.724 46.9224 208.809 48.077 195.293 57.2568C190.168 60.7485 185.662 63.7616 185.296 63.9868C184.48 64.4655 183.804 65.0569 194.842 55.8207C199.939 51.5405 204.416 47.7109 204.782 47.2885C205.402 46.6408 205.402 46.5564 204.951 46.5564C204.05 46.5564 201.572 48.2459 187.38 58.6085C184.48 60.6922 185.24 60.0164 193.265 53.1174C200.558 46.838 201.657 45.8242 201.347 45.5145C200.981 45.1766 199.122 46.2748 191.294 51.5124L183.55 56.7218L187.493 52.9766C194.561 46.2748 195.377 45.4582 195.18 45.2892C194.983 45.0639 191.097 47.5138 185.409 51.3997C183.212 52.9485 181.354 54.1593 181.298 54.103C181.241 54.0467 183.015 52.0192 185.268 49.5694C187.493 47.1195 189.323 45.0639 189.323 45.0076C189.323 44.6134 188.422 45.0076 186.929 46.0777ZM224.522 66.6338C224.522 66.6901 224.24 66.9717 223.902 67.2815L223.255 67.8165L223.79 67.1688C224.297 66.5775 224.522 66.4085 224.522 66.6338ZM188.478 72.0122C188.478 72.0685 188.253 72.2938 187.999 72.4909C187.549 72.857 187.521 72.8288 187.887 72.3782C188.253 71.9277 188.478 71.7869 188.478 72.0122Z" fill="#02B3CE"/>
</g>
<defs>
<clipPath id="clip0">
<rect width="56.3182" height="56.3182" fill="white" transform="translate(178.341 43.1772)"/>
</clipPath>
</defs>
</svg>
