<svg width="40" height="40" viewBox="0 0 40 40" fill="none" xmlns="http://www.w3.org/2000/svg">
<path d="M20.2499 8.65746C21.736 8.6552 23.2075 8.95116 24.5772 9.52781C25.9469 10.1045 27.187 10.9501 28.224 12.0146C29.242 13.0596 30.0442 14.2948 30.5848 15.6498C31.1253 17.0048 31.3938 18.453 31.3747 19.9117C31.3556 21.3704 31.0494 22.8111 30.4735 24.1514C29.8976 25.4918 29.0634 26.7056 28.0184 27.7236C26.2392 29.4525 23.9324 30.5361 21.4658 30.8016C18.9991 31.0672 16.5146 30.4994 14.4081 29.1888L14.5131 29.2907L10.1543 30.8526L11.8345 26.9946C9.99684 24.8509 9.04441 22.0879 9.17081 19.2672C9.29722 16.4464 10.493 13.7797 12.515 11.809C14.5852 9.79234 17.3598 8.66184 20.2498 8.65746H20.2499Z" stroke="white" stroke-width="1.032" stroke-linecap="round" stroke-linejoin="round"/>
<path d="M16.0604 21.105C16.7042 21.105 17.2262 20.583 17.2262 19.9392C17.2262 19.2953 16.7042 18.7733 16.0604 18.7733C15.4165 18.7733 14.8945 19.2953 14.8945 19.9392C14.8945 20.583 15.4165 21.105 16.0604 21.105Z" fill="white"/>
<path d="M20.4581 21.105C21.102 21.105 21.6239 20.583 21.6239 19.9392C21.6239 19.2953 21.102 18.7733 20.4581 18.7733C19.8142 18.7733 19.2922 19.2953 19.2922 19.9392C19.2922 20.583 19.8142 21.105 20.4581 21.105Z" fill="white"/>
<path d="M24.856 21.105C25.4999 21.105 26.0219 20.583 26.0219 19.9392C26.0219 19.2953 25.4999 18.7733 24.856 18.7733C24.2121 18.7733 23.6902 19.2953 23.6902 19.9392C23.6902 20.583 24.2121 21.105 24.856 21.105Z" fill="white"/>
</svg>
