<svg width="50" height="50" viewBox="0 0 50 50" fill="none" xmlns="http://www.w3.org/2000/svg">
<path d="M7.39605 13.1106C6.91261 13.1106 6.52624 13.7203 6.52341 14.4775L6.47757 26.7144C6.47341 27.4716 6.86682 28.0865 7.3502 28.0812L15.615 27.9895C16.3361 28.5377 15.3279 32.0844 12.6901 33.4507C10.4502 34.611 12.5878 36.9239 12.4789 37.3161C16.1591 36.4136 17.5328 34.9889 18.4839 34.3027C19.9951 33.0685 22.3499 29.8449 22.9376 27.4459C23.0241 27.2337 23.0007 26.9859 23.0018 26.7144L23.0476 14.4774C23.0518 13.7202 22.6584 13.1106 22.1749 13.1106L7.39605 13.1106Z" stroke="white" stroke-width="1.10827" stroke-linecap="round" stroke-linejoin="round"/>
<path d="M28.1055 13.1106C27.6221 13.1106 27.2357 13.7203 27.2329 14.4775L27.187 26.7144C27.1829 27.4716 27.5763 28.0865 28.0597 28.0812L36.3244 27.9895C37.0456 28.5377 36.0374 32.0844 33.3996 33.4507C31.1597 34.611 33.2973 36.9239 33.1884 37.3161C36.8686 36.4136 38.2423 34.9889 39.1934 34.3027C40.7046 33.0685 43.0594 29.8449 43.6471 27.4459C43.7335 27.2337 43.7102 26.9859 43.7112 26.7144L43.7571 14.4774C43.7612 13.7202 43.3679 13.1106 42.8843 13.1106L28.1055 13.1106Z" stroke="white" stroke-width="1.10827" stroke-linecap="round" stroke-linejoin="round"/>
</svg>
